<svg width="18" height="20" viewBox="0 0 18 20" fill="none" xmlns="http://www.w3.org/2000/svg">
<path d="M14.6317 10.534C14.6228 8.90075 15.3618 7.668 16.8577 6.76012C16.0207 5.56297 14.7564 4.90432 13.0869 4.77525C11.5065 4.65064 9.77912 5.69648 9.14695 5.69648C8.47916 5.69648 6.9477 4.81976 5.74568 4.81976C3.26151 4.85981 0.621521 6.80018 0.621521 10.7477C0.621521 11.9137 0.835213 13.1182 1.2626 14.3614C1.83244 15.9947 3.88923 20 6.03505 19.9332C7.15694 19.9065 7.94938 19.1366 9.40961 19.1366C10.8253 19.1366 11.5599 19.9332 12.8109 19.9332C14.9745 19.9021 16.8354 16.2617 17.3785 14.6239C14.4759 13.2577 14.6317 10.6186 14.6317 10.534ZM12.1119 3.22652C13.3273 1.7846 13.216 0.47174 13.1804 0C12.1075 0.0623053 10.8654 0.729862 10.1575 1.55318C9.37845 2.43436 8.9199 3.5247 9.01784 4.753C10.1798 4.84201 11.2393 4.24566 12.1119 3.22652Z" fill="black"/>
</svg>
