<svg width="32" height="29" viewBox="0 0 32 29" fill="none" xmlns="http://www.w3.org/2000/svg">
<path d="M31.2344 16.25H26.2344C25.5713 16.25 24.9354 16.5134 24.4666 16.9822C23.9978 17.451 23.7344 18.0869 23.7344 18.75V25C23.7344 25.663 23.9978 26.2989 24.4666 26.7677C24.9354 27.2366 25.5713 27.5 26.2344 27.5H28.7344C29.3974 27.5 30.0333 27.2366 30.5021 26.7677C30.971 26.2989 31.2344 25.663 31.2344 25V16.25ZM31.2344 16.25C31.2344 14.2696 30.8424 12.3088 30.0807 10.4807C29.3191 8.65262 28.203 6.99346 26.7969 5.59893C25.3907 4.20441 23.7224 3.10213 21.888 2.3557C20.0537 1.60927 18.0897 1.23347 16.1094 1.24997C14.1304 1.23554 12.1681 1.61288 10.3355 2.36023C8.503 3.10759 6.83648 4.21019 5.432 5.60451C4.02751 6.99883 2.91283 8.65729 2.15218 10.4843C1.39153 12.3114 0.999947 14.2709 1 16.25V25C1 25.663 1.26339 26.2989 1.73223 26.7677C2.20107 27.2366 2.83696 27.5 3.5 27.5H6C6.66304 27.5 7.29893 27.2366 7.76777 26.7677C8.23661 26.2989 8.5 25.663 8.5 25V18.75C8.5 18.0869 8.23661 17.451 7.76777 16.9822C7.29893 16.5134 6.66304 16.25 6 16.25H1" stroke="#191C1F" stroke-width="1.5" stroke-linecap="round" stroke-linejoin="round"/>
</svg>
